<svg width="28" height="28" viewBox="0 0 28 28" fill="none" xmlns="http://www.w3.org/2000/svg">
    <path d="M19.5867 0.666748H8.41335C3.56002 0.666748 0.666687 3.56008 0.666687 8.41341V19.5734C0.666687 24.4401 3.56002 27.3334 8.41335 27.3334H19.5734C24.4267 27.3334 27.32 24.4401 27.32 19.5868V8.41341C27.3334 3.56008 24.44 0.666748 19.5867 0.666748ZM14 19.1734C11.1467 19.1734 8.82669 16.8534 8.82669 14.0001C8.82669 11.1467 11.1467 8.82675 14 8.82675C16.8534 8.82675 19.1734 11.1467 19.1734 14.0001C19.1734 16.8534 16.8534 19.1734 14 19.1734ZM21.8934 7.17342C21.8267 7.33342 21.7334 7.48008 21.6134 7.61341C21.48 7.73342 21.3334 7.82675 21.1734 7.89341C21.0134 7.96008 20.84 8.00008 20.6667 8.00008C20.3067 8.00008 19.9734 7.86675 19.72 7.61341C19.6 7.48008 19.5067 7.33342 19.44 7.17342C19.3734 7.01341 19.3334 6.84008 19.3334 6.66675C19.3334 6.49341 19.3734 6.32008 19.44 6.16008C19.5067 5.98675 19.6 5.85342 19.72 5.72008C20.0267 5.41341 20.4934 5.26675 20.92 5.36008C21.0134 5.37341 21.0934 5.40008 21.1734 5.44008C21.2534 5.46675 21.3334 5.50675 21.4134 5.56008C21.48 5.60008 21.5467 5.66675 21.6134 5.72008C21.7334 5.85342 21.8267 5.98675 21.8934 6.16008C21.96 6.32008 22 6.49341 22 6.66675C22 6.84008 21.96 7.01341 21.8934 7.17342Z" fill="#7562E0"/>
</svg>
